<svg xmlns="http://www.w3.org/2000/svg" width="89.575" height="89.575" viewBox="0 0 89.575 89.575">
  <g id="Group_469" data-name="Group 469" transform="translate(0 0)">
    <circle id="Ellipse_134" data-name="Ellipse 134" cx="31.687" cy="31.687" r="31.687" transform="translate(13.214 13.214)" fill="#c5c5c5"/>
    <g id="Path_481" data-name="Path 481" transform="translate(47.135 89.575) rotate(-138)" fill="none" stroke-dasharray="150 1000">
      <path d="M31.713,0A31.713,31.713,0,1,1,0,31.713,31.713,31.713,0,0,1,31.713,0Z" stroke="none"/>
      <path d="M 31.7128734588623 0 C 49.22740173339844 0 63.42574691772461 14.19832611083984 63.42574691772461 31.7128734588623 C 63.42574691772461 49.22740173339844 49.22740173339844 63.42574691772461 31.7128734588623 63.42574691772461 C 14.19832611083984 63.42574691772461 0 49.22740173339844 0 31.7128734588623 L 10 31.7128734588623 C 10 43.68540191650391 19.7403450012207 53.42574691772461 31.7128734588623 53.42574691772461 C 43.68540191650391 53.42574691772461 53.42574691772461 43.68540191650391 53.42574691772461 31.7128734588623 C 53.42574691772461 19.7403450012207 43.68540191650391 10 31.7128734588623 10 L 31.7128734588623 0 C 31.7128734588623 0 31.7128734588623 0 31.7128734588623 0 Z" stroke="none" fill="#f80"/>
    </g>
    <g id="Ellipse_135" data-name="Ellipse 135" transform="translate(17.37 17.369)" fill="#fff" stroke="#fff" stroke-width="1">
      <circle cx="27.531" cy="27.531" r="27.531" stroke="none"/>
      <circle cx="27.531" cy="27.531" r="27.031" fill="none"/>
    </g>
    <g id="noun-calendar-4160896" transform="translate(31.615 32.412)">
      <path id="Path_668" data-name="Path 668" d="M451.43,232.62H454.6v3.172H451.43Z" transform="translate(-432.445 -222.848)" fill="#6e6e6e"/>
      <path id="Path_669" data-name="Path 669" d="M454.6,371.3H451.43v3.172H454.6Zm-.35.86-1.043,1.845a.4.4,0,0,1-.586.126l-.731-.535a.4.4,0,0,1,.474-.648l.367.268.821-1.453a.4.4,0,1,1,.7.4Z" transform="translate(-432.445 -353.58)" fill="#6e6e6e"/>
      <path id="Path_670" data-name="Path 670" d="M322.34,371.3h3.171v3.172H322.34Z" transform="translate(-310.754 -353.58)" fill="#6e6e6e"/>
      <path id="Path_671" data-name="Path 671" d="M325.5,232.62h-3.171v3.172H325.5V232.62Zm-.349.861-1.043,1.845a.4.4,0,0,1-.586.126l-.731-.535a.4.4,0,1,1,.473-.648l.367.268.821-1.453a.4.4,0,1,1,.7.4Z" transform="translate(-310.746 -222.848)" fill="#6e6e6e"/>
      <path id="Path_672" data-name="Path 672" d="M146.529,63.516a1.4,1.4,0,0,0-1.4-1.4H121.589a1.4,1.4,0,0,0-1.4,1.4v3.647h26.343Zm-20.571,2.836a1.453,1.453,0,1,1,1.454-1.453A1.455,1.455,0,0,1,125.958,66.352Zm7.4,0A1.453,1.453,0,1,1,134.81,64.9,1.455,1.455,0,0,1,133.357,66.352Zm7.4,0a1.453,1.453,0,1,1,1.453-1.453A1.455,1.455,0,0,1,140.755,66.352Z" transform="translate(-120.186 -62.113)" fill="#6e6e6e"/>
      <path id="Path_673" data-name="Path 673" d="M339.952,100.016a.651.651,0,1,1-.651-.651.651.651,0,0,1,.651.651" transform="translate(-326.129 -97.23)" fill="#6e6e6e"/>
      <path id="Path_674" data-name="Path 674" d="M469.028,100.016a.651.651,0,1,1-.651-.651.651.651,0,0,1,.651.651" transform="translate(-447.807 -97.23)" fill="#6e6e6e"/>
      <path id="Path_675" data-name="Path 675" d="M210.838,100.016a.651.651,0,1,1-.651-.651.651.651,0,0,1,.651.651" transform="translate(-204.415 -97.23)" fill="#6e6e6e"/>
      <path id="Path_676" data-name="Path 676" d="M193.23,232.62H196.4v3.172H193.23Z" transform="translate(-189.043 -222.848)" fill="#6e6e6e"/>
      <path id="Path_677" data-name="Path 677" d="M196.4,371.3H193.23v3.172H196.4Zm-.35.86-1.043,1.845a.4.4,0,0,1-.586.126l-.731-.535a.4.4,0,0,1,.473-.648l.367.268.821-1.453a.4.4,0,1,1,.7.4Z" transform="translate(-189.043 -353.58)" fill="#6e6e6e"/>
      <path id="Path_678" data-name="Path 678" d="M120.18,181.941a1.4,1.4,0,0,0,1.4,1.4h23.538a1.4,1.4,0,0,0,1.4-1.4V164.22H120.18Zm18.182-14.2a.4.4,0,0,1,.4-.4h3.974a.4.4,0,0,1,.4.4v3.974a.4.4,0,0,1-.4.4h-3.974a.4.4,0,0,1-.4-.4Zm0,7.948a.4.4,0,0,1,.4-.4h3.974a.4.4,0,0,1,.4.4v3.974a.4.4,0,0,1-.4.4h-3.974a.4.4,0,0,1-.4-.4Zm-7.4-7.948a.4.4,0,0,1,.4-.4h3.973a.4.4,0,0,1,.4.4v3.974a.4.4,0,0,1-.4.4h-3.973a.4.4,0,0,1-.4-.4Zm0,7.948a.4.4,0,0,1,.4-.4h3.973a.4.4,0,0,1,.4.4v3.974a.4.4,0,0,1-.4.4h-3.973a.4.4,0,0,1-.4-.4Zm-7.4-7.948a.4.4,0,0,1,.4-.4h3.974a.4.4,0,0,1,.4.4v3.974a.4.4,0,0,1-.4.4h-3.974a.4.4,0,0,1-.4-.4Zm0,7.948a.4.4,0,0,1,.4-.4h3.974a.4.4,0,0,1,.4.4v3.974a.4.4,0,0,1-.4.4h-3.974a.4.4,0,0,1-.4-.4Z" transform="translate(-120.18 -158.368)" fill="#6e6e6e"/>
    </g>
  </g>
</svg>
